Sr.Avila.S01E04.1280x1080i.h264.HDTV.THoRCuATo.mkv
Format                           : Matroska
File size                        : 1.78 GiB
Duration                         : 48mn 39s
Overall bit rate                 : 5 230 Kbps
Encoded date                     : UTC 2013-06-10 02:11:47
Writing application              : mkvmerge v6.1.0 ('Old Devil') built on Mar  2 2013 14:32:37
Writing library                  : libebml v1.3.0 + libmatroska v1.4.0

Video
ID                               : 1
Format                           : AVC
Format/Info                      : Advanced Video Codec
Format profile                   : Main@L4.0
Format settings, CABAC           : No
Format settings, ReFrames        : 4 frames
Muxing mode                      : Container profile=Unknown@4.0
Codec ID                         : V_MPEG4/ISO/AVC
Duration                         : 48mn 39s
Bit rate                         : 4 678 Kbps
Width                            : 1 280 pixels
Height                           : 1 080 pixels
Display aspect ratio             : 16:9
Frame rate                       : 59.940 fps
Original frame rate              : 29.970 fps
Color space                      : YUV
Chroma subsampling               : 4:2:0
Bit depth                        : 8 bits
Scan type                        : MBAFF
Scan order                       : Top Field First
Bits/(Pixel*Frame)               : 0.056
Stream size                      : 1.59 GiB (89%)

Audio
ID                               : 2
Format                           : AC-3
Format/Info                      : Audio Coding 3
Mode extension                   : CM (complete main)
Codec ID                         : A_AC3
Duration                         : 48mn 39s
Bit rate mode                    : Constant
Bit rate                         : 448 Kbps
Channel(s)                       : 6 channels
Channel positions                : Front: L C R, Side: L R, LFE
Sampling rate                    : 48.0 KHz
Bit depth                        : 16 bits
Video delay                      : -26ms
Stream size                      : 156 MiB (9%)

